<mxfile host="app.diagrams.net" modified="2024-01-15T15:56:07.084Z" agent="Mozilla/5.0 (X11; Linux x86_64) AppleWebKit/537.36 (KHTML, like Gecko) Chrome/120.0.0.0 Safari/537.36" etag="yfpgsApXLDxSK8Pcx3Eh" version="22.1.18" type="github">
  <diagram id="R2lEEEUBdFMjLlhIrx00" name="Page-1">
    <mxGraphModel dx="2004" dy="593" grid="1" gridSize="10" guides="1" tooltips="1" connect="1" arrows="1" fold="1" page="1" pageScale="1" pageWidth="850" pageHeight="1100" math="0" shadow="0" extFonts="Permanent Marker^https://fonts.googleapis.com/css?family=Permanent+Marker">
      <root>
        <mxCell id="0" />
        <mxCell id="1" parent="0" />
        <mxCell id="QdExP_D7JXvFWyzReiiT-1" value="Employees" style="shape=table;startSize=30;container=1;collapsible=1;childLayout=tableLayout;fixedRows=1;rowLines=0;fontStyle=1;align=center;resizeLast=1;html=1;" vertex="1" parent="1">
          <mxGeometry x="130" y="120" width="180" height="330" as="geometry" />
        </mxCell>
        <mxCell id="QdExP_D7JXvFWyzReiiT-2" value="" style="shape=tableRow;horizontal=0;startSize=0;swimlaneHead=0;swimlaneBody=0;fillColor=none;collapsible=0;dropTarget=0;points=[[0,0.5],[1,0.5]];portConstraint=eastwest;top=0;left=0;right=0;bottom=1;" vertex="1" parent="QdExP_D7JXvFWyzReiiT-1">
          <mxGeometry y="30" width="180" height="30" as="geometry" />
        </mxCell>
        <mxCell id="QdExP_D7JXvFWyzReiiT-3" value="PK" style="shape=partialRectangle;connectable=0;fillColor=none;top=0;left=0;bottom=0;right=0;fontStyle=1;overflow=hidden;whiteSpace=wrap;html=1;" vertex="1" parent="QdExP_D7JXvFWyzReiiT-2">
          <mxGeometry width="30" height="30" as="geometry">
            <mxRectangle width="30" height="30" as="alternateBounds" />
          </mxGeometry>
        </mxCell>
        <mxCell id="QdExP_D7JXvFWyzReiiT-4" value="EmployeeID" style="shape=partialRectangle;connectable=0;fillColor=none;top=0;left=0;bottom=0;right=0;align=left;spacingLeft=6;fontStyle=5;overflow=hidden;whiteSpace=wrap;html=1;" vertex="1" parent="QdExP_D7JXvFWyzReiiT-2">
          <mxGeometry x="30" width="150" height="30" as="geometry">
            <mxRectangle width="150" height="30" as="alternateBounds" />
          </mxGeometry>
        </mxCell>
        <mxCell id="QdExP_D7JXvFWyzReiiT-5" value="" style="shape=tableRow;horizontal=0;startSize=0;swimlaneHead=0;swimlaneBody=0;fillColor=none;collapsible=0;dropTarget=0;points=[[0,0.5],[1,0.5]];portConstraint=eastwest;top=0;left=0;right=0;bottom=0;" vertex="1" parent="QdExP_D7JXvFWyzReiiT-1">
          <mxGeometry y="60" width="180" height="30" as="geometry" />
        </mxCell>
        <mxCell id="QdExP_D7JXvFWyzReiiT-6" value="" style="shape=partialRectangle;connectable=0;fillColor=none;top=0;left=0;bottom=0;right=0;editable=1;overflow=hidden;whiteSpace=wrap;html=1;" vertex="1" parent="QdExP_D7JXvFWyzReiiT-5">
          <mxGeometry width="30" height="30" as="geometry">
            <mxRectangle width="30" height="30" as="alternateBounds" />
          </mxGeometry>
        </mxCell>
        <mxCell id="QdExP_D7JXvFWyzReiiT-7" value="FirstName" style="shape=partialRectangle;connectable=0;fillColor=none;top=0;left=0;bottom=0;right=0;align=left;spacingLeft=6;overflow=hidden;whiteSpace=wrap;html=1;" vertex="1" parent="QdExP_D7JXvFWyzReiiT-5">
          <mxGeometry x="30" width="150" height="30" as="geometry">
            <mxRectangle width="150" height="30" as="alternateBounds" />
          </mxGeometry>
        </mxCell>
        <mxCell id="QdExP_D7JXvFWyzReiiT-8" value="" style="shape=tableRow;horizontal=0;startSize=0;swimlaneHead=0;swimlaneBody=0;fillColor=none;collapsible=0;dropTarget=0;points=[[0,0.5],[1,0.5]];portConstraint=eastwest;top=0;left=0;right=0;bottom=0;" vertex="1" parent="QdExP_D7JXvFWyzReiiT-1">
          <mxGeometry y="90" width="180" height="30" as="geometry" />
        </mxCell>
        <mxCell id="QdExP_D7JXvFWyzReiiT-9" value="" style="shape=partialRectangle;connectable=0;fillColor=none;top=0;left=0;bottom=0;right=0;editable=1;overflow=hidden;whiteSpace=wrap;html=1;" vertex="1" parent="QdExP_D7JXvFWyzReiiT-8">
          <mxGeometry width="30" height="30" as="geometry">
            <mxRectangle width="30" height="30" as="alternateBounds" />
          </mxGeometry>
        </mxCell>
        <mxCell id="QdExP_D7JXvFWyzReiiT-10" value="SecondName" style="shape=partialRectangle;connectable=0;fillColor=none;top=0;left=0;bottom=0;right=0;align=left;spacingLeft=6;overflow=hidden;whiteSpace=wrap;html=1;" vertex="1" parent="QdExP_D7JXvFWyzReiiT-8">
          <mxGeometry x="30" width="150" height="30" as="geometry">
            <mxRectangle width="150" height="30" as="alternateBounds" />
          </mxGeometry>
        </mxCell>
        <mxCell id="QdExP_D7JXvFWyzReiiT-11" value="" style="shape=tableRow;horizontal=0;startSize=0;swimlaneHead=0;swimlaneBody=0;fillColor=none;collapsible=0;dropTarget=0;points=[[0,0.5],[1,0.5]];portConstraint=eastwest;top=0;left=0;right=0;bottom=0;" vertex="1" parent="QdExP_D7JXvFWyzReiiT-1">
          <mxGeometry y="120" width="180" height="30" as="geometry" />
        </mxCell>
        <mxCell id="QdExP_D7JXvFWyzReiiT-12" value="" style="shape=partialRectangle;connectable=0;fillColor=none;top=0;left=0;bottom=0;right=0;editable=1;overflow=hidden;whiteSpace=wrap;html=1;" vertex="1" parent="QdExP_D7JXvFWyzReiiT-11">
          <mxGeometry width="30" height="30" as="geometry">
            <mxRectangle width="30" height="30" as="alternateBounds" />
          </mxGeometry>
        </mxCell>
        <mxCell id="QdExP_D7JXvFWyzReiiT-13" value="LastName" style="shape=partialRectangle;connectable=0;fillColor=none;top=0;left=0;bottom=0;right=0;align=left;spacingLeft=6;overflow=hidden;whiteSpace=wrap;html=1;" vertex="1" parent="QdExP_D7JXvFWyzReiiT-11">
          <mxGeometry x="30" width="150" height="30" as="geometry">
            <mxRectangle width="150" height="30" as="alternateBounds" />
          </mxGeometry>
        </mxCell>
        <mxCell id="QdExP_D7JXvFWyzReiiT-53" value="" style="shape=tableRow;horizontal=0;startSize=0;swimlaneHead=0;swimlaneBody=0;fillColor=none;collapsible=0;dropTarget=0;points=[[0,0.5],[1,0.5]];portConstraint=eastwest;top=0;left=0;right=0;bottom=0;" vertex="1" parent="QdExP_D7JXvFWyzReiiT-1">
          <mxGeometry y="150" width="180" height="30" as="geometry" />
        </mxCell>
        <mxCell id="QdExP_D7JXvFWyzReiiT-54" value="" style="shape=partialRectangle;connectable=0;fillColor=none;top=0;left=0;bottom=0;right=0;editable=1;overflow=hidden;whiteSpace=wrap;html=1;" vertex="1" parent="QdExP_D7JXvFWyzReiiT-53">
          <mxGeometry width="30" height="30" as="geometry">
            <mxRectangle width="30" height="30" as="alternateBounds" />
          </mxGeometry>
        </mxCell>
        <mxCell id="QdExP_D7JXvFWyzReiiT-55" value="Age" style="shape=partialRectangle;connectable=0;fillColor=none;top=0;left=0;bottom=0;right=0;align=left;spacingLeft=6;overflow=hidden;whiteSpace=wrap;html=1;" vertex="1" parent="QdExP_D7JXvFWyzReiiT-53">
          <mxGeometry x="30" width="150" height="30" as="geometry">
            <mxRectangle width="150" height="30" as="alternateBounds" />
          </mxGeometry>
        </mxCell>
        <mxCell id="QdExP_D7JXvFWyzReiiT-56" value="" style="shape=tableRow;horizontal=0;startSize=0;swimlaneHead=0;swimlaneBody=0;fillColor=none;collapsible=0;dropTarget=0;points=[[0,0.5],[1,0.5]];portConstraint=eastwest;top=0;left=0;right=0;bottom=0;" vertex="1" parent="QdExP_D7JXvFWyzReiiT-1">
          <mxGeometry y="180" width="180" height="30" as="geometry" />
        </mxCell>
        <mxCell id="QdExP_D7JXvFWyzReiiT-57" value="" style="shape=partialRectangle;connectable=0;fillColor=none;top=0;left=0;bottom=0;right=0;editable=1;overflow=hidden;whiteSpace=wrap;html=1;" vertex="1" parent="QdExP_D7JXvFWyzReiiT-56">
          <mxGeometry width="30" height="30" as="geometry">
            <mxRectangle width="30" height="30" as="alternateBounds" />
          </mxGeometry>
        </mxCell>
        <mxCell id="QdExP_D7JXvFWyzReiiT-58" value="Sex" style="shape=partialRectangle;connectable=0;fillColor=none;top=0;left=0;bottom=0;right=0;align=left;spacingLeft=6;overflow=hidden;whiteSpace=wrap;html=1;" vertex="1" parent="QdExP_D7JXvFWyzReiiT-56">
          <mxGeometry x="30" width="150" height="30" as="geometry">
            <mxRectangle width="150" height="30" as="alternateBounds" />
          </mxGeometry>
        </mxCell>
        <mxCell id="QdExP_D7JXvFWyzReiiT-59" value="" style="shape=tableRow;horizontal=0;startSize=0;swimlaneHead=0;swimlaneBody=0;fillColor=none;collapsible=0;dropTarget=0;points=[[0,0.5],[1,0.5]];portConstraint=eastwest;top=0;left=0;right=0;bottom=0;" vertex="1" parent="QdExP_D7JXvFWyzReiiT-1">
          <mxGeometry y="210" width="180" height="30" as="geometry" />
        </mxCell>
        <mxCell id="QdExP_D7JXvFWyzReiiT-60" value="" style="shape=partialRectangle;connectable=0;fillColor=none;top=0;left=0;bottom=0;right=0;editable=1;overflow=hidden;whiteSpace=wrap;html=1;" vertex="1" parent="QdExP_D7JXvFWyzReiiT-59">
          <mxGeometry width="30" height="30" as="geometry">
            <mxRectangle width="30" height="30" as="alternateBounds" />
          </mxGeometry>
        </mxCell>
        <mxCell id="QdExP_D7JXvFWyzReiiT-61" value="Salary" style="shape=partialRectangle;connectable=0;fillColor=none;top=0;left=0;bottom=0;right=0;align=left;spacingLeft=6;overflow=hidden;whiteSpace=wrap;html=1;" vertex="1" parent="QdExP_D7JXvFWyzReiiT-59">
          <mxGeometry x="30" width="150" height="30" as="geometry">
            <mxRectangle width="150" height="30" as="alternateBounds" />
          </mxGeometry>
        </mxCell>
        <mxCell id="QdExP_D7JXvFWyzReiiT-62" value="" style="shape=tableRow;horizontal=0;startSize=0;swimlaneHead=0;swimlaneBody=0;fillColor=none;collapsible=0;dropTarget=0;points=[[0,0.5],[1,0.5]];portConstraint=eastwest;top=0;left=0;right=0;bottom=0;" vertex="1" parent="QdExP_D7JXvFWyzReiiT-1">
          <mxGeometry y="240" width="180" height="30" as="geometry" />
        </mxCell>
        <mxCell id="QdExP_D7JXvFWyzReiiT-63" value="" style="shape=partialRectangle;connectable=0;fillColor=none;top=0;left=0;bottom=0;right=0;editable=1;overflow=hidden;whiteSpace=wrap;html=1;" vertex="1" parent="QdExP_D7JXvFWyzReiiT-62">
          <mxGeometry width="30" height="30" as="geometry">
            <mxRectangle width="30" height="30" as="alternateBounds" />
          </mxGeometry>
        </mxCell>
        <mxCell id="QdExP_D7JXvFWyzReiiT-64" value="EmploymentStatus" style="shape=partialRectangle;connectable=0;fillColor=none;top=0;left=0;bottom=0;right=0;align=left;spacingLeft=6;overflow=hidden;whiteSpace=wrap;html=1;" vertex="1" parent="QdExP_D7JXvFWyzReiiT-62">
          <mxGeometry x="30" width="150" height="30" as="geometry">
            <mxRectangle width="150" height="30" as="alternateBounds" />
          </mxGeometry>
        </mxCell>
        <mxCell id="QdExP_D7JXvFWyzReiiT-65" value="" style="shape=tableRow;horizontal=0;startSize=0;swimlaneHead=0;swimlaneBody=0;fillColor=none;collapsible=0;dropTarget=0;points=[[0,0.5],[1,0.5]];portConstraint=eastwest;top=0;left=0;right=0;bottom=0;" vertex="1" parent="QdExP_D7JXvFWyzReiiT-1">
          <mxGeometry y="270" width="180" height="30" as="geometry" />
        </mxCell>
        <mxCell id="QdExP_D7JXvFWyzReiiT-66" value="" style="shape=partialRectangle;connectable=0;fillColor=none;top=0;left=0;bottom=0;right=0;editable=1;overflow=hidden;whiteSpace=wrap;html=1;" vertex="1" parent="QdExP_D7JXvFWyzReiiT-65">
          <mxGeometry width="30" height="30" as="geometry">
            <mxRectangle width="30" height="30" as="alternateBounds" />
          </mxGeometry>
        </mxCell>
        <mxCell id="QdExP_D7JXvFWyzReiiT-67" value="Team" style="shape=partialRectangle;connectable=0;fillColor=none;top=0;left=0;bottom=0;right=0;align=left;spacingLeft=6;overflow=hidden;whiteSpace=wrap;html=1;" vertex="1" parent="QdExP_D7JXvFWyzReiiT-65">
          <mxGeometry x="30" width="150" height="30" as="geometry">
            <mxRectangle width="150" height="30" as="alternateBounds" />
          </mxGeometry>
        </mxCell>
        <mxCell id="QdExP_D7JXvFWyzReiiT-74" value="" style="shape=tableRow;horizontal=0;startSize=0;swimlaneHead=0;swimlaneBody=0;fillColor=none;collapsible=0;dropTarget=0;points=[[0,0.5],[1,0.5]];portConstraint=eastwest;top=0;left=0;right=0;bottom=0;" vertex="1" parent="QdExP_D7JXvFWyzReiiT-1">
          <mxGeometry y="300" width="180" height="30" as="geometry" />
        </mxCell>
        <mxCell id="QdExP_D7JXvFWyzReiiT-75" value="" style="shape=partialRectangle;connectable=0;fillColor=none;top=0;left=0;bottom=0;right=0;editable=1;overflow=hidden;whiteSpace=wrap;html=1;" vertex="1" parent="QdExP_D7JXvFWyzReiiT-74">
          <mxGeometry width="30" height="30" as="geometry">
            <mxRectangle width="30" height="30" as="alternateBounds" />
          </mxGeometry>
        </mxCell>
        <mxCell id="QdExP_D7JXvFWyzReiiT-76" value="Role" style="shape=partialRectangle;connectable=0;fillColor=none;top=0;left=0;bottom=0;right=0;align=left;spacingLeft=6;overflow=hidden;whiteSpace=wrap;html=1;" vertex="1" parent="QdExP_D7JXvFWyzReiiT-74">
          <mxGeometry x="30" width="150" height="30" as="geometry">
            <mxRectangle width="150" height="30" as="alternateBounds" />
          </mxGeometry>
        </mxCell>
        <mxCell id="QdExP_D7JXvFWyzReiiT-88" value="Leaves" style="shape=table;startSize=30;container=1;collapsible=1;childLayout=tableLayout;fixedRows=1;rowLines=0;fontStyle=1;align=center;resizeLast=1;html=1;" vertex="1" parent="1">
          <mxGeometry x="425" y="70" width="180" height="150" as="geometry" />
        </mxCell>
        <mxCell id="QdExP_D7JXvFWyzReiiT-89" value="" style="shape=tableRow;horizontal=0;startSize=0;swimlaneHead=0;swimlaneBody=0;fillColor=none;collapsible=0;dropTarget=0;points=[[0,0.5],[1,0.5]];portConstraint=eastwest;top=0;left=0;right=0;bottom=1;" vertex="1" parent="QdExP_D7JXvFWyzReiiT-88">
          <mxGeometry y="30" width="180" height="30" as="geometry" />
        </mxCell>
        <mxCell id="QdExP_D7JXvFWyzReiiT-90" value="PK" style="shape=partialRectangle;connectable=0;fillColor=none;top=0;left=0;bottom=0;right=0;fontStyle=1;overflow=hidden;whiteSpace=wrap;html=1;" vertex="1" parent="QdExP_D7JXvFWyzReiiT-89">
          <mxGeometry width="30" height="30" as="geometry">
            <mxRectangle width="30" height="30" as="alternateBounds" />
          </mxGeometry>
        </mxCell>
        <mxCell id="QdExP_D7JXvFWyzReiiT-91" value="LeavesID" style="shape=partialRectangle;connectable=0;fillColor=none;top=0;left=0;bottom=0;right=0;align=left;spacingLeft=6;fontStyle=5;overflow=hidden;whiteSpace=wrap;html=1;" vertex="1" parent="QdExP_D7JXvFWyzReiiT-89">
          <mxGeometry x="30" width="150" height="30" as="geometry">
            <mxRectangle width="150" height="30" as="alternateBounds" />
          </mxGeometry>
        </mxCell>
        <mxCell id="QdExP_D7JXvFWyzReiiT-92" value="" style="shape=tableRow;horizontal=0;startSize=0;swimlaneHead=0;swimlaneBody=0;fillColor=none;collapsible=0;dropTarget=0;points=[[0,0.5],[1,0.5]];portConstraint=eastwest;top=0;left=0;right=0;bottom=0;" vertex="1" parent="QdExP_D7JXvFWyzReiiT-88">
          <mxGeometry y="60" width="180" height="30" as="geometry" />
        </mxCell>
        <mxCell id="QdExP_D7JXvFWyzReiiT-93" value="FK" style="shape=partialRectangle;connectable=0;fillColor=none;top=0;left=0;bottom=0;right=0;editable=1;overflow=hidden;whiteSpace=wrap;html=1;" vertex="1" parent="QdExP_D7JXvFWyzReiiT-92">
          <mxGeometry width="30" height="30" as="geometry">
            <mxRectangle width="30" height="30" as="alternateBounds" />
          </mxGeometry>
        </mxCell>
        <mxCell id="QdExP_D7JXvFWyzReiiT-94" value="EmployeeID" style="shape=partialRectangle;connectable=0;fillColor=none;top=0;left=0;bottom=0;right=0;align=left;spacingLeft=6;overflow=hidden;whiteSpace=wrap;html=1;" vertex="1" parent="QdExP_D7JXvFWyzReiiT-92">
          <mxGeometry x="30" width="150" height="30" as="geometry">
            <mxRectangle width="150" height="30" as="alternateBounds" />
          </mxGeometry>
        </mxCell>
        <mxCell id="QdExP_D7JXvFWyzReiiT-95" value="" style="shape=tableRow;horizontal=0;startSize=0;swimlaneHead=0;swimlaneBody=0;fillColor=none;collapsible=0;dropTarget=0;points=[[0,0.5],[1,0.5]];portConstraint=eastwest;top=0;left=0;right=0;bottom=0;" vertex="1" parent="QdExP_D7JXvFWyzReiiT-88">
          <mxGeometry y="90" width="180" height="30" as="geometry" />
        </mxCell>
        <mxCell id="QdExP_D7JXvFWyzReiiT-96" value="" style="shape=partialRectangle;connectable=0;fillColor=none;top=0;left=0;bottom=0;right=0;editable=1;overflow=hidden;whiteSpace=wrap;html=1;" vertex="1" parent="QdExP_D7JXvFWyzReiiT-95">
          <mxGeometry width="30" height="30" as="geometry">
            <mxRectangle width="30" height="30" as="alternateBounds" />
          </mxGeometry>
        </mxCell>
        <mxCell id="QdExP_D7JXvFWyzReiiT-97" value="Date" style="shape=partialRectangle;connectable=0;fillColor=none;top=0;left=0;bottom=0;right=0;align=left;spacingLeft=6;overflow=hidden;whiteSpace=wrap;html=1;" vertex="1" parent="QdExP_D7JXvFWyzReiiT-95">
          <mxGeometry x="30" width="150" height="30" as="geometry">
            <mxRectangle width="150" height="30" as="alternateBounds" />
          </mxGeometry>
        </mxCell>
        <mxCell id="QdExP_D7JXvFWyzReiiT-98" value="" style="shape=tableRow;horizontal=0;startSize=0;swimlaneHead=0;swimlaneBody=0;fillColor=none;collapsible=0;dropTarget=0;points=[[0,0.5],[1,0.5]];portConstraint=eastwest;top=0;left=0;right=0;bottom=0;" vertex="1" parent="QdExP_D7JXvFWyzReiiT-88">
          <mxGeometry y="120" width="180" height="30" as="geometry" />
        </mxCell>
        <mxCell id="QdExP_D7JXvFWyzReiiT-99" value="" style="shape=partialRectangle;connectable=0;fillColor=none;top=0;left=0;bottom=0;right=0;editable=1;overflow=hidden;whiteSpace=wrap;html=1;" vertex="1" parent="QdExP_D7JXvFWyzReiiT-98">
          <mxGeometry width="30" height="30" as="geometry">
            <mxRectangle width="30" height="30" as="alternateBounds" />
          </mxGeometry>
        </mxCell>
        <mxCell id="QdExP_D7JXvFWyzReiiT-100" value="Reason" style="shape=partialRectangle;connectable=0;fillColor=none;top=0;left=0;bottom=0;right=0;align=left;spacingLeft=6;overflow=hidden;whiteSpace=wrap;html=1;" vertex="1" parent="QdExP_D7JXvFWyzReiiT-98">
          <mxGeometry x="30" width="150" height="30" as="geometry">
            <mxRectangle width="150" height="30" as="alternateBounds" />
          </mxGeometry>
        </mxCell>
        <mxCell id="QdExP_D7JXvFWyzReiiT-101" style="edgeStyle=orthogonalEdgeStyle;rounded=0;orthogonalLoop=1;jettySize=auto;html=1;entryX=1;entryY=0.5;entryDx=0;entryDy=0;" edge="1" parent="1" source="QdExP_D7JXvFWyzReiiT-92" target="QdExP_D7JXvFWyzReiiT-2">
          <mxGeometry relative="1" as="geometry" />
        </mxCell>
        <mxCell id="QdExP_D7JXvFWyzReiiT-102" value="Authentication" style="shape=table;startSize=30;container=1;collapsible=1;childLayout=tableLayout;fixedRows=1;rowLines=0;fontStyle=1;align=center;resizeLast=1;html=1;" vertex="1" parent="1">
          <mxGeometry x="630" y="200" width="180" height="180" as="geometry" />
        </mxCell>
        <mxCell id="QdExP_D7JXvFWyzReiiT-103" value="" style="shape=tableRow;horizontal=0;startSize=0;swimlaneHead=0;swimlaneBody=0;fillColor=none;collapsible=0;dropTarget=0;points=[[0,0.5],[1,0.5]];portConstraint=eastwest;top=0;left=0;right=0;bottom=1;" vertex="1" parent="QdExP_D7JXvFWyzReiiT-102">
          <mxGeometry y="30" width="180" height="30" as="geometry" />
        </mxCell>
        <mxCell id="QdExP_D7JXvFWyzReiiT-104" value="PK" style="shape=partialRectangle;connectable=0;fillColor=none;top=0;left=0;bottom=0;right=0;fontStyle=1;overflow=hidden;whiteSpace=wrap;html=1;" vertex="1" parent="QdExP_D7JXvFWyzReiiT-103">
          <mxGeometry width="30" height="30" as="geometry">
            <mxRectangle width="30" height="30" as="alternateBounds" />
          </mxGeometry>
        </mxCell>
        <mxCell id="QdExP_D7JXvFWyzReiiT-105" value="AuthenticationID" style="shape=partialRectangle;connectable=0;fillColor=none;top=0;left=0;bottom=0;right=0;align=left;spacingLeft=6;fontStyle=5;overflow=hidden;whiteSpace=wrap;html=1;" vertex="1" parent="QdExP_D7JXvFWyzReiiT-103">
          <mxGeometry x="30" width="150" height="30" as="geometry">
            <mxRectangle width="150" height="30" as="alternateBounds" />
          </mxGeometry>
        </mxCell>
        <mxCell id="QdExP_D7JXvFWyzReiiT-106" value="" style="shape=tableRow;horizontal=0;startSize=0;swimlaneHead=0;swimlaneBody=0;fillColor=none;collapsible=0;dropTarget=0;points=[[0,0.5],[1,0.5]];portConstraint=eastwest;top=0;left=0;right=0;bottom=0;" vertex="1" parent="QdExP_D7JXvFWyzReiiT-102">
          <mxGeometry y="60" width="180" height="30" as="geometry" />
        </mxCell>
        <mxCell id="QdExP_D7JXvFWyzReiiT-107" value="FK" style="shape=partialRectangle;connectable=0;fillColor=none;top=0;left=0;bottom=0;right=0;editable=1;overflow=hidden;whiteSpace=wrap;html=1;" vertex="1" parent="QdExP_D7JXvFWyzReiiT-106">
          <mxGeometry width="30" height="30" as="geometry">
            <mxRectangle width="30" height="30" as="alternateBounds" />
          </mxGeometry>
        </mxCell>
        <mxCell id="QdExP_D7JXvFWyzReiiT-108" value="EmployeeID" style="shape=partialRectangle;connectable=0;fillColor=none;top=0;left=0;bottom=0;right=0;align=left;spacingLeft=6;overflow=hidden;whiteSpace=wrap;html=1;" vertex="1" parent="QdExP_D7JXvFWyzReiiT-106">
          <mxGeometry x="30" width="150" height="30" as="geometry">
            <mxRectangle width="150" height="30" as="alternateBounds" />
          </mxGeometry>
        </mxCell>
        <mxCell id="QdExP_D7JXvFWyzReiiT-109" value="" style="shape=tableRow;horizontal=0;startSize=0;swimlaneHead=0;swimlaneBody=0;fillColor=none;collapsible=0;dropTarget=0;points=[[0,0.5],[1,0.5]];portConstraint=eastwest;top=0;left=0;right=0;bottom=0;" vertex="1" parent="QdExP_D7JXvFWyzReiiT-102">
          <mxGeometry y="90" width="180" height="30" as="geometry" />
        </mxCell>
        <mxCell id="QdExP_D7JXvFWyzReiiT-110" value="" style="shape=partialRectangle;connectable=0;fillColor=none;top=0;left=0;bottom=0;right=0;editable=1;overflow=hidden;whiteSpace=wrap;html=1;" vertex="1" parent="QdExP_D7JXvFWyzReiiT-109">
          <mxGeometry width="30" height="30" as="geometry">
            <mxRectangle width="30" height="30" as="alternateBounds" />
          </mxGeometry>
        </mxCell>
        <mxCell id="QdExP_D7JXvFWyzReiiT-111" value="UserName" style="shape=partialRectangle;connectable=0;fillColor=none;top=0;left=0;bottom=0;right=0;align=left;spacingLeft=6;overflow=hidden;whiteSpace=wrap;html=1;" vertex="1" parent="QdExP_D7JXvFWyzReiiT-109">
          <mxGeometry x="30" width="150" height="30" as="geometry">
            <mxRectangle width="150" height="30" as="alternateBounds" />
          </mxGeometry>
        </mxCell>
        <mxCell id="QdExP_D7JXvFWyzReiiT-112" value="" style="shape=tableRow;horizontal=0;startSize=0;swimlaneHead=0;swimlaneBody=0;fillColor=none;collapsible=0;dropTarget=0;points=[[0,0.5],[1,0.5]];portConstraint=eastwest;top=0;left=0;right=0;bottom=0;" vertex="1" parent="QdExP_D7JXvFWyzReiiT-102">
          <mxGeometry y="120" width="180" height="30" as="geometry" />
        </mxCell>
        <mxCell id="QdExP_D7JXvFWyzReiiT-113" value="" style="shape=partialRectangle;connectable=0;fillColor=none;top=0;left=0;bottom=0;right=0;editable=1;overflow=hidden;whiteSpace=wrap;html=1;" vertex="1" parent="QdExP_D7JXvFWyzReiiT-112">
          <mxGeometry width="30" height="30" as="geometry">
            <mxRectangle width="30" height="30" as="alternateBounds" />
          </mxGeometry>
        </mxCell>
        <mxCell id="QdExP_D7JXvFWyzReiiT-114" value="Password" style="shape=partialRectangle;connectable=0;fillColor=none;top=0;left=0;bottom=0;right=0;align=left;spacingLeft=6;overflow=hidden;whiteSpace=wrap;html=1;" vertex="1" parent="QdExP_D7JXvFWyzReiiT-112">
          <mxGeometry x="30" width="150" height="30" as="geometry">
            <mxRectangle width="150" height="30" as="alternateBounds" />
          </mxGeometry>
        </mxCell>
        <mxCell id="QdExP_D7JXvFWyzReiiT-115" value="" style="shape=tableRow;horizontal=0;startSize=0;swimlaneHead=0;swimlaneBody=0;fillColor=none;collapsible=0;dropTarget=0;points=[[0,0.5],[1,0.5]];portConstraint=eastwest;top=0;left=0;right=0;bottom=0;" vertex="1" parent="QdExP_D7JXvFWyzReiiT-102">
          <mxGeometry y="150" width="180" height="30" as="geometry" />
        </mxCell>
        <mxCell id="QdExP_D7JXvFWyzReiiT-116" value="" style="shape=partialRectangle;connectable=0;fillColor=none;top=0;left=0;bottom=0;right=0;editable=1;overflow=hidden;whiteSpace=wrap;html=1;" vertex="1" parent="QdExP_D7JXvFWyzReiiT-115">
          <mxGeometry width="30" height="30" as="geometry">
            <mxRectangle width="30" height="30" as="alternateBounds" />
          </mxGeometry>
        </mxCell>
        <mxCell id="QdExP_D7JXvFWyzReiiT-117" value="AccountStatus" style="shape=partialRectangle;connectable=0;fillColor=none;top=0;left=0;bottom=0;right=0;align=left;spacingLeft=6;overflow=hidden;whiteSpace=wrap;html=1;" vertex="1" parent="QdExP_D7JXvFWyzReiiT-115">
          <mxGeometry x="30" width="150" height="30" as="geometry">
            <mxRectangle width="150" height="30" as="alternateBounds" />
          </mxGeometry>
        </mxCell>
        <mxCell id="QdExP_D7JXvFWyzReiiT-118" style="edgeStyle=orthogonalEdgeStyle;rounded=0;orthogonalLoop=1;jettySize=auto;html=1;entryX=1;entryY=0.5;entryDx=0;entryDy=0;" edge="1" parent="1" source="QdExP_D7JXvFWyzReiiT-106" target="QdExP_D7JXvFWyzReiiT-2">
          <mxGeometry relative="1" as="geometry">
            <Array as="points">
              <mxPoint x="730" y="260" />
              <mxPoint x="380" y="260" />
              <mxPoint x="380" y="165" />
            </Array>
          </mxGeometry>
        </mxCell>
        <mxCell id="QdExP_D7JXvFWyzReiiT-119" value="Announcement" style="shape=table;startSize=30;container=1;collapsible=1;childLayout=tableLayout;fixedRows=1;rowLines=0;fontStyle=1;align=center;resizeLast=1;html=1;" vertex="1" parent="1">
          <mxGeometry x="410" y="290" width="180" height="180" as="geometry" />
        </mxCell>
        <mxCell id="QdExP_D7JXvFWyzReiiT-120" value="" style="shape=tableRow;horizontal=0;startSize=0;swimlaneHead=0;swimlaneBody=0;fillColor=none;collapsible=0;dropTarget=0;points=[[0,0.5],[1,0.5]];portConstraint=eastwest;top=0;left=0;right=0;bottom=1;" vertex="1" parent="QdExP_D7JXvFWyzReiiT-119">
          <mxGeometry y="30" width="180" height="30" as="geometry" />
        </mxCell>
        <mxCell id="QdExP_D7JXvFWyzReiiT-121" value="PK" style="shape=partialRectangle;connectable=0;fillColor=none;top=0;left=0;bottom=0;right=0;fontStyle=1;overflow=hidden;whiteSpace=wrap;html=1;" vertex="1" parent="QdExP_D7JXvFWyzReiiT-120">
          <mxGeometry width="30" height="30" as="geometry">
            <mxRectangle width="30" height="30" as="alternateBounds" />
          </mxGeometry>
        </mxCell>
        <mxCell id="QdExP_D7JXvFWyzReiiT-122" value="AnnouncementID" style="shape=partialRectangle;connectable=0;fillColor=none;top=0;left=0;bottom=0;right=0;align=left;spacingLeft=6;fontStyle=5;overflow=hidden;whiteSpace=wrap;html=1;" vertex="1" parent="QdExP_D7JXvFWyzReiiT-120">
          <mxGeometry x="30" width="150" height="30" as="geometry">
            <mxRectangle width="150" height="30" as="alternateBounds" />
          </mxGeometry>
        </mxCell>
        <mxCell id="QdExP_D7JXvFWyzReiiT-123" value="" style="shape=tableRow;horizontal=0;startSize=0;swimlaneHead=0;swimlaneBody=0;fillColor=none;collapsible=0;dropTarget=0;points=[[0,0.5],[1,0.5]];portConstraint=eastwest;top=0;left=0;right=0;bottom=0;" vertex="1" parent="QdExP_D7JXvFWyzReiiT-119">
          <mxGeometry y="60" width="180" height="30" as="geometry" />
        </mxCell>
        <mxCell id="QdExP_D7JXvFWyzReiiT-124" value="FK" style="shape=partialRectangle;connectable=0;fillColor=none;top=0;left=0;bottom=0;right=0;editable=1;overflow=hidden;whiteSpace=wrap;html=1;" vertex="1" parent="QdExP_D7JXvFWyzReiiT-123">
          <mxGeometry width="30" height="30" as="geometry">
            <mxRectangle width="30" height="30" as="alternateBounds" />
          </mxGeometry>
        </mxCell>
        <mxCell id="QdExP_D7JXvFWyzReiiT-125" value="EmployeeID" style="shape=partialRectangle;connectable=0;fillColor=none;top=0;left=0;bottom=0;right=0;align=left;spacingLeft=6;overflow=hidden;whiteSpace=wrap;html=1;" vertex="1" parent="QdExP_D7JXvFWyzReiiT-123">
          <mxGeometry x="30" width="150" height="30" as="geometry">
            <mxRectangle width="150" height="30" as="alternateBounds" />
          </mxGeometry>
        </mxCell>
        <mxCell id="QdExP_D7JXvFWyzReiiT-126" value="" style="shape=tableRow;horizontal=0;startSize=0;swimlaneHead=0;swimlaneBody=0;fillColor=none;collapsible=0;dropTarget=0;points=[[0,0.5],[1,0.5]];portConstraint=eastwest;top=0;left=0;right=0;bottom=0;" vertex="1" parent="QdExP_D7JXvFWyzReiiT-119">
          <mxGeometry y="90" width="180" height="30" as="geometry" />
        </mxCell>
        <mxCell id="QdExP_D7JXvFWyzReiiT-127" value="" style="shape=partialRectangle;connectable=0;fillColor=none;top=0;left=0;bottom=0;right=0;editable=1;overflow=hidden;whiteSpace=wrap;html=1;" vertex="1" parent="QdExP_D7JXvFWyzReiiT-126">
          <mxGeometry width="30" height="30" as="geometry">
            <mxRectangle width="30" height="30" as="alternateBounds" />
          </mxGeometry>
        </mxCell>
        <mxCell id="QdExP_D7JXvFWyzReiiT-128" value="Title" style="shape=partialRectangle;connectable=0;fillColor=none;top=0;left=0;bottom=0;right=0;align=left;spacingLeft=6;overflow=hidden;whiteSpace=wrap;html=1;" vertex="1" parent="QdExP_D7JXvFWyzReiiT-126">
          <mxGeometry x="30" width="150" height="30" as="geometry">
            <mxRectangle width="150" height="30" as="alternateBounds" />
          </mxGeometry>
        </mxCell>
        <mxCell id="QdExP_D7JXvFWyzReiiT-129" value="" style="shape=tableRow;horizontal=0;startSize=0;swimlaneHead=0;swimlaneBody=0;fillColor=none;collapsible=0;dropTarget=0;points=[[0,0.5],[1,0.5]];portConstraint=eastwest;top=0;left=0;right=0;bottom=0;" vertex="1" parent="QdExP_D7JXvFWyzReiiT-119">
          <mxGeometry y="120" width="180" height="30" as="geometry" />
        </mxCell>
        <mxCell id="QdExP_D7JXvFWyzReiiT-130" value="" style="shape=partialRectangle;connectable=0;fillColor=none;top=0;left=0;bottom=0;right=0;editable=1;overflow=hidden;whiteSpace=wrap;html=1;" vertex="1" parent="QdExP_D7JXvFWyzReiiT-129">
          <mxGeometry width="30" height="30" as="geometry">
            <mxRectangle width="30" height="30" as="alternateBounds" />
          </mxGeometry>
        </mxCell>
        <mxCell id="QdExP_D7JXvFWyzReiiT-131" value="Text" style="shape=partialRectangle;connectable=0;fillColor=none;top=0;left=0;bottom=0;right=0;align=left;spacingLeft=6;overflow=hidden;whiteSpace=wrap;html=1;" vertex="1" parent="QdExP_D7JXvFWyzReiiT-129">
          <mxGeometry x="30" width="150" height="30" as="geometry">
            <mxRectangle width="150" height="30" as="alternateBounds" />
          </mxGeometry>
        </mxCell>
        <mxCell id="QdExP_D7JXvFWyzReiiT-132" value="" style="shape=tableRow;horizontal=0;startSize=0;swimlaneHead=0;swimlaneBody=0;fillColor=none;collapsible=0;dropTarget=0;points=[[0,0.5],[1,0.5]];portConstraint=eastwest;top=0;left=0;right=0;bottom=0;" vertex="1" parent="QdExP_D7JXvFWyzReiiT-119">
          <mxGeometry y="150" width="180" height="30" as="geometry" />
        </mxCell>
        <mxCell id="QdExP_D7JXvFWyzReiiT-133" value="" style="shape=partialRectangle;connectable=0;fillColor=none;top=0;left=0;bottom=0;right=0;editable=1;overflow=hidden;whiteSpace=wrap;html=1;" vertex="1" parent="QdExP_D7JXvFWyzReiiT-132">
          <mxGeometry width="30" height="30" as="geometry">
            <mxRectangle width="30" height="30" as="alternateBounds" />
          </mxGeometry>
        </mxCell>
        <mxCell id="QdExP_D7JXvFWyzReiiT-134" value="ImageURL" style="shape=partialRectangle;connectable=0;fillColor=none;top=0;left=0;bottom=0;right=0;align=left;spacingLeft=6;overflow=hidden;whiteSpace=wrap;html=1;" vertex="1" parent="QdExP_D7JXvFWyzReiiT-132">
          <mxGeometry x="30" width="150" height="30" as="geometry">
            <mxRectangle width="150" height="30" as="alternateBounds" />
          </mxGeometry>
        </mxCell>
        <mxCell id="QdExP_D7JXvFWyzReiiT-135" style="edgeStyle=orthogonalEdgeStyle;rounded=0;orthogonalLoop=1;jettySize=auto;html=1;entryX=1;entryY=0.5;entryDx=0;entryDy=0;" edge="1" parent="1" source="QdExP_D7JXvFWyzReiiT-120" target="QdExP_D7JXvFWyzReiiT-2">
          <mxGeometry relative="1" as="geometry" />
        </mxCell>
        <mxCell id="QdExP_D7JXvFWyzReiiT-137" value="Employee" style="whiteSpace=wrap;html=1;align=center;" vertex="1" parent="1">
          <mxGeometry x="340" y="710" width="100" height="40" as="geometry" />
        </mxCell>
        <mxCell id="QdExP_D7JXvFWyzReiiT-138" value="Leaves" style="whiteSpace=wrap;html=1;align=center;" vertex="1" parent="1">
          <mxGeometry x="355" y="1160" width="100" height="40" as="geometry" />
        </mxCell>
        <mxCell id="QdExP_D7JXvFWyzReiiT-139" value="Authentication" style="whiteSpace=wrap;html=1;align=center;" vertex="1" parent="1">
          <mxGeometry x="620" y="1010" width="100" height="40" as="geometry" />
        </mxCell>
        <mxCell id="QdExP_D7JXvFWyzReiiT-140" value="Announcement" style="whiteSpace=wrap;html=1;align=center;" vertex="1" parent="1">
          <mxGeometry x="185" y="990" width="100" height="40" as="geometry" />
        </mxCell>
        <mxCell id="QdExP_D7JXvFWyzReiiT-167" style="edgeStyle=orthogonalEdgeStyle;rounded=0;orthogonalLoop=1;jettySize=auto;html=1;entryX=0;entryY=1;entryDx=0;entryDy=0;" edge="1" parent="1" source="QdExP_D7JXvFWyzReiiT-141" target="QdExP_D7JXvFWyzReiiT-137">
          <mxGeometry relative="1" as="geometry">
            <Array as="points">
              <mxPoint x="300" y="750" />
              <mxPoint x="320" y="750" />
              <mxPoint x="320" y="770" />
              <mxPoint x="340" y="770" />
            </Array>
          </mxGeometry>
        </mxCell>
        <mxCell id="QdExP_D7JXvFWyzReiiT-141" value="Team" style="ellipse;whiteSpace=wrap;html=1;align=center;" vertex="1" parent="1">
          <mxGeometry x="120" y="660" width="100" height="40" as="geometry" />
        </mxCell>
        <mxCell id="QdExP_D7JXvFWyzReiiT-166" style="edgeStyle=orthogonalEdgeStyle;rounded=0;orthogonalLoop=1;jettySize=auto;html=1;entryX=0;entryY=0.5;entryDx=0;entryDy=0;" edge="1" parent="1" source="QdExP_D7JXvFWyzReiiT-142" target="QdExP_D7JXvFWyzReiiT-137">
          <mxGeometry relative="1" as="geometry" />
        </mxCell>
        <mxCell id="QdExP_D7JXvFWyzReiiT-142" value="EmploymentStatus" style="ellipse;whiteSpace=wrap;html=1;align=center;" vertex="1" parent="1">
          <mxGeometry x="170" y="590" width="110" height="50" as="geometry" />
        </mxCell>
        <mxCell id="QdExP_D7JXvFWyzReiiT-163" style="edgeStyle=orthogonalEdgeStyle;rounded=0;orthogonalLoop=1;jettySize=auto;html=1;entryX=1;entryY=0.5;entryDx=0;entryDy=0;" edge="1" parent="1" source="QdExP_D7JXvFWyzReiiT-144" target="QdExP_D7JXvFWyzReiiT-137">
          <mxGeometry relative="1" as="geometry">
            <Array as="points">
              <mxPoint x="520" y="730" />
            </Array>
          </mxGeometry>
        </mxCell>
        <mxCell id="QdExP_D7JXvFWyzReiiT-144" value="Age" style="ellipse;whiteSpace=wrap;html=1;align=center;" vertex="1" parent="1">
          <mxGeometry x="515" y="610" width="100" height="40" as="geometry" />
        </mxCell>
        <mxCell id="QdExP_D7JXvFWyzReiiT-165" style="edgeStyle=orthogonalEdgeStyle;rounded=0;orthogonalLoop=1;jettySize=auto;html=1;entryX=1;entryY=0.75;entryDx=0;entryDy=0;" edge="1" parent="1" source="QdExP_D7JXvFWyzReiiT-145" target="QdExP_D7JXvFWyzReiiT-137">
          <mxGeometry relative="1" as="geometry" />
        </mxCell>
        <mxCell id="QdExP_D7JXvFWyzReiiT-145" value="Salary" style="ellipse;whiteSpace=wrap;html=1;align=center;" vertex="1" parent="1">
          <mxGeometry x="560" y="730" width="100" height="40" as="geometry" />
        </mxCell>
        <mxCell id="QdExP_D7JXvFWyzReiiT-164" style="edgeStyle=orthogonalEdgeStyle;rounded=0;orthogonalLoop=1;jettySize=auto;html=1;entryX=1;entryY=0.5;entryDx=0;entryDy=0;" edge="1" parent="1" source="QdExP_D7JXvFWyzReiiT-146" target="QdExP_D7JXvFWyzReiiT-137">
          <mxGeometry relative="1" as="geometry">
            <Array as="points">
              <mxPoint x="440" y="750" />
            </Array>
          </mxGeometry>
        </mxCell>
        <mxCell id="QdExP_D7JXvFWyzReiiT-146" value="Sex" style="ellipse;whiteSpace=wrap;html=1;align=center;" vertex="1" parent="1">
          <mxGeometry x="530" y="660" width="100" height="40" as="geometry" />
        </mxCell>
        <mxCell id="QdExP_D7JXvFWyzReiiT-213" style="edgeStyle=orthogonalEdgeStyle;rounded=0;orthogonalLoop=1;jettySize=auto;html=1;entryX=0.15;entryY=0.925;entryDx=0;entryDy=0;entryPerimeter=0;" edge="1" parent="1" source="QdExP_D7JXvFWyzReiiT-147" target="QdExP_D7JXvFWyzReiiT-137">
          <mxGeometry relative="1" as="geometry">
            <mxPoint x="350" y="760" as="targetPoint" />
            <Array as="points">
              <mxPoint x="180" y="780" />
              <mxPoint x="351" y="780" />
              <mxPoint x="351" y="747" />
            </Array>
          </mxGeometry>
        </mxCell>
        <mxCell id="QdExP_D7JXvFWyzReiiT-147" value="Role" style="ellipse;whiteSpace=wrap;html=1;align=center;" vertex="1" parent="1">
          <mxGeometry x="130" y="710" width="100" height="40" as="geometry" />
        </mxCell>
        <mxCell id="QdExP_D7JXvFWyzReiiT-155" value="" style="edgeStyle=orthogonalEdgeStyle;rounded=0;orthogonalLoop=1;jettySize=auto;html=1;" edge="1" parent="1" source="QdExP_D7JXvFWyzReiiT-150" target="QdExP_D7JXvFWyzReiiT-137">
          <mxGeometry relative="1" as="geometry">
            <Array as="points">
              <mxPoint x="465" y="710" />
            </Array>
          </mxGeometry>
        </mxCell>
        <mxCell id="QdExP_D7JXvFWyzReiiT-150" value="Name" style="ellipse;shape=doubleEllipse;margin=3;whiteSpace=wrap;html=1;align=center;" vertex="1" parent="1">
          <mxGeometry x="415" y="610" width="100" height="40" as="geometry" />
        </mxCell>
        <mxCell id="QdExP_D7JXvFWyzReiiT-154" value="" style="edgeStyle=orthogonalEdgeStyle;rounded=0;orthogonalLoop=1;jettySize=auto;html=1;" edge="1" parent="1" source="QdExP_D7JXvFWyzReiiT-152" target="QdExP_D7JXvFWyzReiiT-137">
          <mxGeometry relative="1" as="geometry">
            <Array as="points">
              <mxPoint x="390" y="630" />
            </Array>
          </mxGeometry>
        </mxCell>
        <mxCell id="QdExP_D7JXvFWyzReiiT-152" value="EmployeeID" style="ellipse;whiteSpace=wrap;html=1;align=center;fontStyle=4;" vertex="1" parent="1">
          <mxGeometry x="240" y="520" width="100" height="40" as="geometry" />
        </mxCell>
        <mxCell id="QdExP_D7JXvFWyzReiiT-162" style="edgeStyle=orthogonalEdgeStyle;rounded=0;orthogonalLoop=1;jettySize=auto;html=1;entryX=0.5;entryY=0;entryDx=0;entryDy=0;" edge="1" parent="1" source="QdExP_D7JXvFWyzReiiT-156" target="QdExP_D7JXvFWyzReiiT-150">
          <mxGeometry relative="1" as="geometry" />
        </mxCell>
        <mxCell id="QdExP_D7JXvFWyzReiiT-156" value="FirstName" style="ellipse;whiteSpace=wrap;html=1;align=center;" vertex="1" parent="1">
          <mxGeometry x="350" y="500" width="100" height="40" as="geometry" />
        </mxCell>
        <mxCell id="QdExP_D7JXvFWyzReiiT-157" value="SecondName" style="ellipse;whiteSpace=wrap;html=1;align=center;" vertex="1" parent="1">
          <mxGeometry x="430" y="510" width="100" height="40" as="geometry" />
        </mxCell>
        <mxCell id="QdExP_D7JXvFWyzReiiT-158" value="LastName" style="ellipse;whiteSpace=wrap;html=1;align=center;" vertex="1" parent="1">
          <mxGeometry x="520" y="540" width="100" height="40" as="geometry" />
        </mxCell>
        <mxCell id="QdExP_D7JXvFWyzReiiT-160" style="edgeStyle=orthogonalEdgeStyle;rounded=0;orthogonalLoop=1;jettySize=auto;html=1;entryX=0.73;entryY=-0.025;entryDx=0;entryDy=0;entryPerimeter=0;" edge="1" parent="1" source="QdExP_D7JXvFWyzReiiT-158" target="QdExP_D7JXvFWyzReiiT-150">
          <mxGeometry relative="1" as="geometry" />
        </mxCell>
        <mxCell id="QdExP_D7JXvFWyzReiiT-200" style="edgeStyle=orthogonalEdgeStyle;rounded=0;orthogonalLoop=1;jettySize=auto;html=1;entryX=0.5;entryY=1;entryDx=0;entryDy=0;" edge="1" parent="1" source="QdExP_D7JXvFWyzReiiT-169" target="QdExP_D7JXvFWyzReiiT-140">
          <mxGeometry relative="1" as="geometry" />
        </mxCell>
        <mxCell id="QdExP_D7JXvFWyzReiiT-169" value="AnnouncementID" style="ellipse;whiteSpace=wrap;html=1;align=center;fontStyle=4;" vertex="1" parent="1">
          <mxGeometry x="-10" y="1040" width="100" height="40" as="geometry" />
        </mxCell>
        <mxCell id="QdExP_D7JXvFWyzReiiT-178" style="edgeStyle=orthogonalEdgeStyle;rounded=0;orthogonalLoop=1;jettySize=auto;html=1;entryX=0.25;entryY=1;entryDx=0;entryDy=0;" edge="1" parent="1" source="QdExP_D7JXvFWyzReiiT-170" target="QdExP_D7JXvFWyzReiiT-140">
          <mxGeometry relative="1" as="geometry" />
        </mxCell>
        <mxCell id="QdExP_D7JXvFWyzReiiT-170" value="ImageURL" style="ellipse;whiteSpace=wrap;html=1;align=center;" vertex="1" parent="1">
          <mxGeometry x="10" y="960" width="100" height="40" as="geometry" />
        </mxCell>
        <mxCell id="QdExP_D7JXvFWyzReiiT-176" style="edgeStyle=orthogonalEdgeStyle;rounded=0;orthogonalLoop=1;jettySize=auto;html=1;entryX=1;entryY=0.5;entryDx=0;entryDy=0;" edge="1" parent="1" source="QdExP_D7JXvFWyzReiiT-171" target="QdExP_D7JXvFWyzReiiT-140">
          <mxGeometry relative="1" as="geometry" />
        </mxCell>
        <mxCell id="QdExP_D7JXvFWyzReiiT-171" value="Title" style="ellipse;whiteSpace=wrap;html=1;align=center;" vertex="1" parent="1">
          <mxGeometry x="240" y="940" width="100" height="40" as="geometry" />
        </mxCell>
        <mxCell id="QdExP_D7JXvFWyzReiiT-175" style="edgeStyle=orthogonalEdgeStyle;rounded=0;orthogonalLoop=1;jettySize=auto;html=1;entryX=0;entryY=0.5;entryDx=0;entryDy=0;" edge="1" parent="1" source="QdExP_D7JXvFWyzReiiT-172" target="QdExP_D7JXvFWyzReiiT-140">
          <mxGeometry relative="1" as="geometry" />
        </mxCell>
        <mxCell id="QdExP_D7JXvFWyzReiiT-172" value="EmployeeID" style="ellipse;whiteSpace=wrap;html=1;align=center;" vertex="1" parent="1">
          <mxGeometry x="30" y="900" width="100" height="40" as="geometry" />
        </mxCell>
        <mxCell id="QdExP_D7JXvFWyzReiiT-177" style="edgeStyle=orthogonalEdgeStyle;rounded=0;orthogonalLoop=1;jettySize=auto;html=1;entryX=0.75;entryY=1;entryDx=0;entryDy=0;" edge="1" parent="1" source="QdExP_D7JXvFWyzReiiT-173" target="QdExP_D7JXvFWyzReiiT-140">
          <mxGeometry relative="1" as="geometry" />
        </mxCell>
        <mxCell id="QdExP_D7JXvFWyzReiiT-173" value="Text" style="ellipse;whiteSpace=wrap;html=1;align=center;" vertex="1" parent="1">
          <mxGeometry y="1100" width="100" height="40" as="geometry" />
        </mxCell>
        <mxCell id="QdExP_D7JXvFWyzReiiT-214" style="edgeStyle=orthogonalEdgeStyle;rounded=0;orthogonalLoop=1;jettySize=auto;html=1;entryX=0.75;entryY=1;entryDx=0;entryDy=0;" edge="1" parent="1" source="QdExP_D7JXvFWyzReiiT-181" target="QdExP_D7JXvFWyzReiiT-138">
          <mxGeometry relative="1" as="geometry" />
        </mxCell>
        <mxCell id="QdExP_D7JXvFWyzReiiT-181" value="LeavesID" style="ellipse;whiteSpace=wrap;html=1;align=center;fontStyle=4;" vertex="1" parent="1">
          <mxGeometry x="415" y="1260" width="100" height="40" as="geometry" />
        </mxCell>
        <mxCell id="QdExP_D7JXvFWyzReiiT-182" value="Reason" style="ellipse;whiteSpace=wrap;html=1;align=center;" vertex="1" parent="1">
          <mxGeometry x="310" y="1270" width="100" height="40" as="geometry" />
        </mxCell>
        <mxCell id="QdExP_D7JXvFWyzReiiT-187" style="edgeStyle=orthogonalEdgeStyle;rounded=0;orthogonalLoop=1;jettySize=auto;html=1;entryX=1;entryY=0.25;entryDx=0;entryDy=0;" edge="1" parent="1" source="QdExP_D7JXvFWyzReiiT-183" target="QdExP_D7JXvFWyzReiiT-138">
          <mxGeometry relative="1" as="geometry">
            <Array as="points">
              <mxPoint x="540" y="1170" />
            </Array>
          </mxGeometry>
        </mxCell>
        <mxCell id="QdExP_D7JXvFWyzReiiT-183" value="EmployeeID" style="ellipse;whiteSpace=wrap;html=1;align=center;" vertex="1" parent="1">
          <mxGeometry x="480" y="1220" width="100" height="40" as="geometry" />
        </mxCell>
        <mxCell id="QdExP_D7JXvFWyzReiiT-186" style="edgeStyle=orthogonalEdgeStyle;rounded=0;orthogonalLoop=1;jettySize=auto;html=1;entryX=0;entryY=0.5;entryDx=0;entryDy=0;" edge="1" parent="1" source="QdExP_D7JXvFWyzReiiT-184" target="QdExP_D7JXvFWyzReiiT-138">
          <mxGeometry relative="1" as="geometry">
            <Array as="points">
              <mxPoint x="290" y="1180" />
            </Array>
          </mxGeometry>
        </mxCell>
        <mxCell id="QdExP_D7JXvFWyzReiiT-184" value="Date" style="ellipse;whiteSpace=wrap;html=1;align=center;" vertex="1" parent="1">
          <mxGeometry x="245" y="1210" width="90" height="40" as="geometry" />
        </mxCell>
        <mxCell id="QdExP_D7JXvFWyzReiiT-188" style="edgeStyle=orthogonalEdgeStyle;rounded=0;orthogonalLoop=1;jettySize=auto;html=1;entryX=0.44;entryY=0.95;entryDx=0;entryDy=0;entryPerimeter=0;" edge="1" parent="1" source="QdExP_D7JXvFWyzReiiT-182" target="QdExP_D7JXvFWyzReiiT-138">
          <mxGeometry relative="1" as="geometry" />
        </mxCell>
        <mxCell id="QdExP_D7JXvFWyzReiiT-189" value="AuthenticationID" style="ellipse;whiteSpace=wrap;html=1;align=center;fontStyle=4;" vertex="1" parent="1">
          <mxGeometry x="740" y="890" width="100" height="40" as="geometry" />
        </mxCell>
        <mxCell id="QdExP_D7JXvFWyzReiiT-195" style="edgeStyle=orthogonalEdgeStyle;rounded=0;orthogonalLoop=1;jettySize=auto;html=1;entryX=1;entryY=0.25;entryDx=0;entryDy=0;" edge="1" parent="1" source="QdExP_D7JXvFWyzReiiT-190" target="QdExP_D7JXvFWyzReiiT-139">
          <mxGeometry relative="1" as="geometry" />
        </mxCell>
        <mxCell id="QdExP_D7JXvFWyzReiiT-190" value="EmployeeID" style="ellipse;whiteSpace=wrap;html=1;align=center;" vertex="1" parent="1">
          <mxGeometry x="750" y="940" width="100" height="40" as="geometry" />
        </mxCell>
        <mxCell id="QdExP_D7JXvFWyzReiiT-196" style="edgeStyle=orthogonalEdgeStyle;rounded=0;orthogonalLoop=1;jettySize=auto;html=1;entryX=0.75;entryY=1;entryDx=0;entryDy=0;" edge="1" parent="1" source="QdExP_D7JXvFWyzReiiT-191" target="QdExP_D7JXvFWyzReiiT-139">
          <mxGeometry relative="1" as="geometry" />
        </mxCell>
        <mxCell id="QdExP_D7JXvFWyzReiiT-191" value="UserName" style="ellipse;whiteSpace=wrap;html=1;align=center;" vertex="1" parent="1">
          <mxGeometry x="730" y="1070" width="100" height="40" as="geometry" />
        </mxCell>
        <mxCell id="QdExP_D7JXvFWyzReiiT-192" value="Password" style="ellipse;whiteSpace=wrap;html=1;align=center;" vertex="1" parent="1">
          <mxGeometry x="500" y="1060" width="100" height="40" as="geometry" />
        </mxCell>
        <mxCell id="QdExP_D7JXvFWyzReiiT-198" style="edgeStyle=orthogonalEdgeStyle;rounded=0;orthogonalLoop=1;jettySize=auto;html=1;entryX=0;entryY=0.25;entryDx=0;entryDy=0;" edge="1" parent="1" source="QdExP_D7JXvFWyzReiiT-193" target="QdExP_D7JXvFWyzReiiT-139">
          <mxGeometry relative="1" as="geometry" />
        </mxCell>
        <mxCell id="QdExP_D7JXvFWyzReiiT-193" value="AccountStatus" style="ellipse;whiteSpace=wrap;html=1;align=center;" vertex="1" parent="1">
          <mxGeometry x="490" y="970" width="100" height="40" as="geometry" />
        </mxCell>
        <mxCell id="QdExP_D7JXvFWyzReiiT-197" style="edgeStyle=orthogonalEdgeStyle;rounded=0;orthogonalLoop=1;jettySize=auto;html=1;entryX=0.13;entryY=0.975;entryDx=0;entryDy=0;entryPerimeter=0;" edge="1" parent="1" source="QdExP_D7JXvFWyzReiiT-192" target="QdExP_D7JXvFWyzReiiT-139">
          <mxGeometry relative="1" as="geometry" />
        </mxCell>
        <mxCell id="QdExP_D7JXvFWyzReiiT-199" style="edgeStyle=orthogonalEdgeStyle;rounded=0;orthogonalLoop=1;jettySize=auto;html=1;entryX=0.66;entryY=-0.025;entryDx=0;entryDy=0;entryPerimeter=0;" edge="1" parent="1" source="QdExP_D7JXvFWyzReiiT-157" target="QdExP_D7JXvFWyzReiiT-150">
          <mxGeometry relative="1" as="geometry" />
        </mxCell>
        <mxCell id="QdExP_D7JXvFWyzReiiT-202" style="edgeStyle=orthogonalEdgeStyle;rounded=0;orthogonalLoop=1;jettySize=auto;html=1;entryX=0.75;entryY=1;entryDx=0;entryDy=0;" edge="1" parent="1" source="QdExP_D7JXvFWyzReiiT-201" target="QdExP_D7JXvFWyzReiiT-137">
          <mxGeometry relative="1" as="geometry">
            <Array as="points">
              <mxPoint x="360" y="880" />
              <mxPoint x="360" y="750" />
            </Array>
          </mxGeometry>
        </mxCell>
        <mxCell id="QdExP_D7JXvFWyzReiiT-203" style="edgeStyle=orthogonalEdgeStyle;rounded=0;orthogonalLoop=1;jettySize=auto;html=1;entryX=0.5;entryY=0;entryDx=0;entryDy=0;" edge="1" parent="1" source="QdExP_D7JXvFWyzReiiT-201" target="QdExP_D7JXvFWyzReiiT-140">
          <mxGeometry relative="1" as="geometry" />
        </mxCell>
        <mxCell id="QdExP_D7JXvFWyzReiiT-201" value="Emp-Ann" style="shape=rhombus;perimeter=rhombusPerimeter;whiteSpace=wrap;html=1;align=center;" vertex="1" parent="1">
          <mxGeometry x="175" y="850" width="120" height="60" as="geometry" />
        </mxCell>
        <mxCell id="QdExP_D7JXvFWyzReiiT-204" value="M" style="text;html=1;align=center;verticalAlign=middle;resizable=0;points=[];autosize=1;strokeColor=none;fillColor=none;" vertex="1" parent="1">
          <mxGeometry x="295" y="848" width="30" height="30" as="geometry" />
        </mxCell>
        <mxCell id="QdExP_D7JXvFWyzReiiT-205" value="N" style="text;html=1;align=center;verticalAlign=middle;resizable=0;points=[];autosize=1;strokeColor=none;fillColor=none;" vertex="1" parent="1">
          <mxGeometry x="230" y="910" width="30" height="30" as="geometry" />
        </mxCell>
        <mxCell id="QdExP_D7JXvFWyzReiiT-207" style="edgeStyle=orthogonalEdgeStyle;rounded=0;orthogonalLoop=1;jettySize=auto;html=1;" edge="1" parent="1" source="QdExP_D7JXvFWyzReiiT-206">
          <mxGeometry relative="1" as="geometry">
            <mxPoint x="430" y="750" as="targetPoint" />
          </mxGeometry>
        </mxCell>
        <mxCell id="QdExP_D7JXvFWyzReiiT-206" value="Emp-Auth" style="shape=rhombus;perimeter=rhombusPerimeter;whiteSpace=wrap;html=1;align=center;" vertex="1" parent="1">
          <mxGeometry x="495" y="840" width="120" height="60" as="geometry" />
        </mxCell>
        <mxCell id="QdExP_D7JXvFWyzReiiT-208" style="edgeStyle=orthogonalEdgeStyle;rounded=0;orthogonalLoop=1;jettySize=auto;html=1;entryX=0.88;entryY=0;entryDx=0;entryDy=0;entryPerimeter=0;" edge="1" parent="1" source="QdExP_D7JXvFWyzReiiT-189" target="QdExP_D7JXvFWyzReiiT-139">
          <mxGeometry relative="1" as="geometry" />
        </mxCell>
        <mxCell id="QdExP_D7JXvFWyzReiiT-209" style="edgeStyle=orthogonalEdgeStyle;rounded=0;orthogonalLoop=1;jettySize=auto;html=1;entryX=0.16;entryY=0.025;entryDx=0;entryDy=0;entryPerimeter=0;" edge="1" parent="1" source="QdExP_D7JXvFWyzReiiT-206" target="QdExP_D7JXvFWyzReiiT-139">
          <mxGeometry relative="1" as="geometry" />
        </mxCell>
        <mxCell id="QdExP_D7JXvFWyzReiiT-210" value="M" style="text;html=1;align=center;verticalAlign=middle;resizable=0;points=[];autosize=1;strokeColor=none;fillColor=none;" vertex="1" parent="1">
          <mxGeometry x="480" y="840" width="30" height="30" as="geometry" />
        </mxCell>
        <mxCell id="QdExP_D7JXvFWyzReiiT-211" value="N" style="text;html=1;align=center;verticalAlign=middle;resizable=0;points=[];autosize=1;strokeColor=none;fillColor=none;" vertex="1" parent="1">
          <mxGeometry x="600" y="840" width="30" height="30" as="geometry" />
        </mxCell>
        <mxCell id="QdExP_D7JXvFWyzReiiT-216" style="edgeStyle=orthogonalEdgeStyle;rounded=0;orthogonalLoop=1;jettySize=auto;html=1;" edge="1" parent="1" source="QdExP_D7JXvFWyzReiiT-215">
          <mxGeometry relative="1" as="geometry">
            <mxPoint x="405" y="750" as="targetPoint" />
          </mxGeometry>
        </mxCell>
        <mxCell id="QdExP_D7JXvFWyzReiiT-217" style="edgeStyle=orthogonalEdgeStyle;rounded=0;orthogonalLoop=1;jettySize=auto;html=1;entryX=0.5;entryY=0;entryDx=0;entryDy=0;" edge="1" parent="1" source="QdExP_D7JXvFWyzReiiT-215" target="QdExP_D7JXvFWyzReiiT-138">
          <mxGeometry relative="1" as="geometry" />
        </mxCell>
        <mxCell id="QdExP_D7JXvFWyzReiiT-215" value="Emp-Leaves" style="shape=rhombus;perimeter=rhombusPerimeter;whiteSpace=wrap;html=1;align=center;" vertex="1" parent="1">
          <mxGeometry x="345" y="1000" width="120" height="60" as="geometry" />
        </mxCell>
        <mxCell id="QdExP_D7JXvFWyzReiiT-218" value="1" style="text;html=1;align=center;verticalAlign=middle;resizable=0;points=[];autosize=1;strokeColor=none;fillColor=none;" vertex="1" parent="1">
          <mxGeometry x="400" y="975" width="30" height="30" as="geometry" />
        </mxCell>
        <mxCell id="QdExP_D7JXvFWyzReiiT-219" value="1" style="text;html=1;align=center;verticalAlign=middle;resizable=0;points=[];autosize=1;strokeColor=none;fillColor=none;" vertex="1" parent="1">
          <mxGeometry x="400" y="1050" width="30" height="30" as="geometry" />
        </mxCell>
      </root>
    </mxGraphModel>
  </diagram>
</mxfile>
